<svg width="68" height="68" viewBox="0 0 68 68" fill="none" xmlns="http://www.w3.org/2000/svg">
<g clip-path="url(#clip0_2_40)">
<rect width="68" height="68" rx="34" fill="white"/>
<rect x="56.3901" y="-16.1632" width="92.4602" height="95.3339" transform="rotate(20.7786 56.3901 -16.1632)" fill="#D9D9D9"/>
<path d="M-33.0162 -39.9221L53 -7.2844L19.1796 81.8489L-66.8366 49.2112L-33.0162 -39.9221Z" fill="#020C20"/>
<rect x="-7" width="82" height="73" fill="url(#paint0_linear_2_40)"/>
<path d="M45.0434 11.2954L49.7775 30.9747L42.721 30.9119L40.5776 18.9265L40.4242 18.9251L37.8121 30.8682L30.9601 30.8072L28.4578 18.9208L28.3044 18.9195L26.0512 30.7635L18.9947 30.7007L24.0783 11.1088L31.6974 11.1766L34.3648 21.7349L34.5694 21.7367L37.4244 11.2276L45.0434 11.2954Z" fill="white"/>
<path d="M45.0434 11.2954L46.0157 11.0616L45.8331 10.3024L45.0523 10.2955L45.0434 11.2954ZM49.7775 30.9747L49.7686 31.9747L51.0494 31.9861L50.7498 30.7408L49.7775 30.9747ZM42.721 30.9119L41.7366 31.088L41.8826 31.9045L42.7121 31.9119L42.721 30.9119ZM40.5776 18.9265L41.562 18.7504L41.4159 17.9339L40.5865 17.9265L40.5776 18.9265ZM40.4242 18.9251L40.4331 17.9251L39.6208 17.9179L39.4473 18.7114L40.4242 18.9251ZM37.8121 30.8682L37.8032 31.8682L38.6154 31.8754L38.789 31.0819L37.8121 30.8682ZM30.9601 30.8072L29.9815 31.0132L30.1472 31.8L30.9512 31.8072L30.9601 30.8072ZM28.4578 18.9208L29.4364 18.7148L29.2708 17.928L28.4667 17.9209L28.4578 18.9208ZM28.3044 18.9195L28.3133 17.9195L27.4782 17.9121L27.3221 18.7326L28.3044 18.9195ZM26.0512 30.7635L26.0423 31.7635L26.8775 31.7709L27.0336 30.9504L26.0512 30.7635ZM18.9947 30.7007L18.0267 30.4496L17.705 31.6893L18.9858 31.7007L18.9947 30.7007ZM24.0783 11.1088L24.0872 10.1089L23.3065 10.1019L23.1104 10.8577L24.0783 11.1088ZM31.6974 11.1766L32.6669 10.9317L32.4779 10.1836L31.7063 10.1767L31.6974 11.1766ZM34.3648 21.7349L33.3953 21.9799L33.5843 22.728L34.3559 22.7349L34.3648 21.7349ZM34.5694 21.7367L34.5605 22.7367L35.3321 22.7436L35.5344 21.9989L34.5694 21.7367ZM37.4244 11.2276L37.4333 10.2277L36.6617 10.2208L36.4594 10.9655L37.4244 11.2276ZM44.0712 11.5293L48.8053 31.2086L50.7498 30.7408L46.0157 11.0616L44.0712 11.5293ZM49.7864 29.9748L42.7299 29.912L42.7121 31.9119L49.7686 31.9747L49.7864 29.9748ZM43.7054 30.7359L41.562 18.7504L39.5932 19.1025L41.7366 31.088L43.7054 30.7359ZM40.5865 17.9265L40.4331 17.9251L40.4153 19.925L40.5687 19.9264L40.5865 17.9265ZM39.4473 18.7114L36.8352 30.6546L38.789 31.0819L41.4011 19.1387L39.4473 18.7114ZM37.821 29.8683L30.969 29.8073L30.9512 31.8072L37.8032 31.8682L37.821 29.8683ZM31.9386 30.6012L29.4364 18.7148L27.4793 19.1268L29.9815 31.0132L31.9386 30.6012ZM28.4667 17.9209L28.3133 17.9195L28.2955 19.9194L28.4489 19.9208L28.4667 17.9209ZM27.3221 18.7326L25.0688 30.5766L27.0336 30.9504L29.2868 19.1064L27.3221 18.7326ZM26.0601 29.7636L19.0036 29.7008L18.9858 31.7007L26.0423 31.7635L26.0601 29.7636ZM19.9626 30.9519L25.0463 11.36L23.1104 10.8577L18.0267 30.4496L19.9626 30.9519ZM24.0694 12.1088L31.6885 12.1766L31.7063 10.1767L24.0872 10.1089L24.0694 12.1088ZM30.7278 11.4216L33.3953 21.9799L35.3344 21.49L32.6669 10.9317L30.7278 11.4216ZM34.3559 22.7349L34.5605 22.7367L34.5783 20.7368L34.3737 20.7349L34.3559 22.7349ZM35.5344 21.9989L38.3894 11.4898L36.4594 10.9655L33.6044 21.4746L35.5344 21.9989ZM37.4155 12.2276L45.0345 12.2954L45.0523 10.2955L37.4333 10.2277L37.4155 12.2276Z" fill="#021E54" fill-opacity="0.31"/>
<path d="M23.867 53.3409L18.9579 33.7046H26.0147L28.2647 45.6705H28.4182L30.9238 33.7046H37.7761L40.3841 45.5682H40.5375L42.6852 33.7046H49.742L44.8329 53.3409H37.2136L34.4522 42.8069H34.2477L31.4863 53.3409H23.867Z" fill="white"/>
<path d="M23.867 53.3409L22.8969 53.5835L23.0862 54.3409H23.867V53.3409ZM18.9579 33.7046V32.7046H17.6772L17.9878 33.9471L18.9579 33.7046ZM26.0147 33.7046L26.9975 33.5198L26.8442 32.7046H26.0147V33.7046ZM28.2647 45.6705L27.282 45.8553L27.4353 46.6705H28.2647V45.6705ZM28.4182 45.6705V46.6705H29.2304L29.3969 45.8754L28.4182 45.6705ZM30.9238 33.7046V32.7046H30.1116L29.9451 33.4996L30.9238 33.7046ZM37.7761 33.7046L38.7528 33.4899L38.5802 32.7046H37.7761V33.7046ZM40.3841 45.5682L39.4074 45.7829L39.58 46.5682H40.3841V45.5682ZM40.5375 45.5682V46.5682H41.3727L41.5215 45.7464L40.5375 45.5682ZM42.6852 33.7046V32.7046H41.85L41.7012 33.5264L42.6852 33.7046ZM49.742 33.7046L50.7122 33.9471L51.0228 32.7046H49.742V33.7046ZM44.8329 53.3409V54.3409H45.6137L45.8031 53.5835L44.8329 53.3409ZM37.2136 53.3409L36.2463 53.5945L36.442 54.3409H37.2136V53.3409ZM34.4522 42.8069L35.4196 42.5533L35.2239 41.8069H34.4522V42.8069ZM34.2477 42.8069V41.8069H33.4761L33.2804 42.5533L34.2477 42.8069ZM31.4863 53.3409V54.3409H32.258L32.4537 53.5945L31.4863 53.3409ZM24.8372 53.0984L19.9281 33.462L17.9878 33.9471L22.8969 53.5835L24.8372 53.0984ZM18.9579 34.7046H26.0147V32.7046H18.9579V34.7046ZM25.032 33.8894L27.282 45.8553L29.2475 45.4857L26.9975 33.5198L25.032 33.8894ZM28.2647 46.6705H28.4182V44.6705H28.2647V46.6705ZM29.3969 45.8754L31.9026 33.9095L29.9451 33.4996L27.4394 45.4655L29.3969 45.8754ZM30.9238 34.7046H37.7761V32.7046H30.9238V34.7046ZM36.7994 33.9193L39.4074 45.7829L41.3607 45.3535L38.7528 33.4899L36.7994 33.9193ZM40.3841 46.5682H40.5375V44.5682H40.3841V46.5682ZM41.5215 45.7464L43.6692 33.8827L41.7012 33.5264L39.5535 45.3901L41.5215 45.7464ZM42.6852 34.7046H49.742V32.7046H42.6852V34.7046ZM48.7719 33.462L43.8628 53.0984L45.8031 53.5835L50.7122 33.9471L48.7719 33.462ZM44.8329 52.3409H37.2136V54.3409H44.8329V52.3409ZM38.1809 53.0874L35.4196 42.5533L33.4849 43.0604L36.2463 53.5945L38.1809 53.0874ZM34.4522 41.8069H34.2477V43.8069H34.4522V41.8069ZM33.2804 42.5533L30.519 53.0874L32.4537 53.5945L35.215 43.0604L33.2804 42.5533ZM31.4863 52.3409H23.867V54.3409H31.4863V52.3409Z" fill="#021E54" fill-opacity="0.31"/>
</g>
<rect x="0.5" y="0.5" width="67" height="67" rx="33.5" stroke="#020C20"/>
<defs>
<linearGradient id="paint0_linear_2_40" x1="-5.29167" y1="1.51659e-05" x2="72.7222" y2="1.66886e-05" gradientUnits="userSpaceOnUse">
<stop stop-color="#7FA9C0"/>
<stop offset="1" stop-color="#0066FF" stop-opacity="0"/>
</linearGradient>
<clipPath id="clip0_2_40">
<rect width="68" height="68" rx="34" fill="white"/>
</clipPath>
</defs>
</svg>
